<?xml version="1.0" encoding="UTF-8"?><svg id="Layer_2" xmlns="http://www.w3.org/2000/svg" viewBox="0 0 1208.75 358.77"><g id="Layer_1-2"><g><path d="M313.92,121.14c-10.94-11.07-23.8-19.51-37.59-26.62-1.35-1.5-3.15-2.28-4.94-3.04-23.91-10.2-48.79-13.91-74.54-10.22-41.69,5.97-74.57,26.43-98.49,61.12-1.87,2.72-4.17,5.33-4.64,8.83-.64,1.25-1.28,2.5-1.94,3.75-16,30.33-20.43,62.4-12.72,95.67,16.86,72.74,87.54,119.11,161.31,105.91,63.16-11.3,109.15-63.97,114.39-122.7,3.92-43.86-9.91-81.41-40.85-112.68Zm-18.55,95.31c-24.57,.05-49.15,.04-73.73,.04h-3.57c-.46,1.08,.32,1.7,.69,2.4,4.6,8.5,9.28,16.95,13.79,25.51,.91,1.74,2,2.17,3.83,2.15,8.99-.07,17.98-.04,27.68-.04-1.72,2.38-2.97,4.38-4.48,6.15-15.1,17.67-34.12,24.71-56.62,18.46-22.72-6.32-36.48-21.99-40.13-45.29-4.78-30.57,14.47-57.89,44.32-63.75,14.83-2.9,28.76-.11,41.27,8.59,1.87,1.31,3.22,1.35,5.22,.36,6.89-3.41,13.62-7.18,20.78-10.07,14.81,15.19,23.2,33.25,24.37,54.55-.74,1.76-2.27,.94-3.42,.94Z" style="fill:#1d1a1a;"/><path d="M276.34,94.53c-10.34-4.51-20.82-8.64-31.97-10.74-45.39-8.56-85.84,1.87-121.18,31.67-11.99,10.11-21.35,22.43-29.46,35.75-1.62-5.97-3.28-11.93-4.85-17.92-.41-1.55-1.01-2.29-2.81-2.33-26.63-.54-53.26-1.17-79.89-1.77-.52-.01-1.04,.08-1.79,.14,3.15,11.57,6.26,22.97,9.37,34.37,1.77,6.49,3.63,12.97,5.3,19.49,.49,1.93,1.15,2.8,3.36,2.99,6.8,.59,11.93,5.43,13.01,11.77,1.06,6.26-2.14,12.18-8.24,15.17-.58,.29-1.72,.44-1.71,.83,.17,5.68-4.19,2.6-6.48,2.21-6.6-1.14-11.11-5.74-12.33-12.24-1.24-6.61,1.28-11.75,6.73-15.36,1.74-1.15,1.89-2.07,1.38-3.91-4.9-17.69-9.65-35.41-14.56-53.09-.55-1.99-.23-3.11,1.36-4.4,6.4-5.22,12.71-10.55,19.01-15.9,17.47-14.83,35.02-29.58,52.33-44.59,7.31-6.34,14.77-12.48,22.12-18.75,17.69-15.08,35.52-30.01,53.02-45.31,2.95-2.58,5.4-3,8.92-2.35,38.67,7.17,77.36,14.21,116.05,21.3,24.69,4.53,49.37,9.08,74.05,13.63,.29,.05,.57,.18,.88,.29,.03,1.23-1.04,1.33-1.7,1.73-14.78,8.93-29.59,17.83-44.38,26.75-8.56,5.16-17.06,10.41-25.65,15.51-2.02,1.2-3.03,2.33-2.21,4.91,1.05,3.29,1.55,6.75,2.29,10.14Z" style="fill:#ea4d37;"/><path d="M602.5,173.99c-7.15,3.69-14.29,7.34-21.37,11.07-1.58,.83-2.12-.34-2.91-1.14-13.33-13.42-39.42-12.25-51.02,2.59-7.8,9.99-9.03,21.31-4.06,32.88,4.96,11.54,14.24,17.93,26.65,19.17,9.85,.99,19.22-.92,27.7-6.46,2.58-1.68,3.05-3.76,2.97-6.56-.17-6.45-.05-6.45-6.41-6.45-8.04,0-16.09-.11-24.13,.06-2.52,.05-3.11-.72-3.02-3.11,.18-4.99,.12-10,.02-14.99-.03-1.71,.54-2.21,2.23-2.21,17.5,.05,35.01,.06,52.51,0,1.79,0,2.17,.66,2.16,2.29-.05,12.17-.06,24.34,0,36.51,0,1.71-.81,2.86-1.85,4-15.03,16.48-33.73,23.65-55.85,21.32-20.39-2.15-36.18-11.93-45.89-30.2-17.73-33.34,2.51-74.5,40.07-81.42,24.47-4.51,45.36,2.07,61.53,21.61,.21,.25,.35,.54,.67,1.04Z" style="fill:#ea4c36;"/><path d="M1207.01,207.68c-6.31,21.19-12.1,42.51-19.11,63.48-.83,2.46-1.87,4.86-2.94,7.22-3.28,7.25-9.22,10.92-17.11,10.45-4.73-.27-9.12-1.8-13.16-4.3-1.74-1.07-2.53-2.31-1.17-4.23,.43-.62,.81-1.31,1.04-2.01,.89-2.7,2.14-2.81,4.51-1.29,10.22,6.55,15.6,4.64,19.64-6.78,.96-2.75,1.83-5.54,2.73-8.28-.27-.19-.42-.4-.57-.41q-5.3-.27-7.07-5.24c-5.99-16.95-11.99-33.9-17.99-50.85-.26-.97-.33-2-1.04-2.81-.44-2.17,1.29-2.48,2.65-3.01,7.92-3.07,6.39-3.48,8.85,4.06,5.83,17.79,12.09,35.44,17.39,53.35,4.25-16.36,8.51-32.79,12.77-49.21,.7-2.73,1.42-5.45,2.11-8.19,.47-1.84,1.39-2.49,3.31-1.69,8.78,3.66,7.57,1.66,5.17,9.72Z" style="fill:#1d1a1a;"/><path d="M654.9,214.55c-.06,8.05,.36,16.07,2.45,23.91,.25,.94,.48,1.89,.79,2.82,4.57,13.79,14.96,17.15,26.79,8.67,.09-.06,.17-.13,.26-.19,4.17-3.02,6.37-2.33,8.46,2.5,.69,1.6-.26,2.51-1.17,3.39-11.01,10.59-30.97,11.08-40.6-2.4-4.67-6.55-6.79-14.02-7.79-21.84-1.78-13.91-1.82-27.78,2.34-41.32,7.39-24.07,31.09-23.46,43.49-13.59,3.68,2.93,3.15,7.69-1.05,9.83-1.07,.54-1.61-.26-2.29-.71-2.17-1.44-4.21-3.1-6.48-4.34-9.34-5.09-18.35-1.69-22.14,8.22-2.24,5.87-2.65,12.06-3.04,18.23-.14,2.27-.02,4.56-.02,6.85Z" style="fill:#1d1a1a;"/><path d="M904.46,256.11c-2.5,1.54-4.84,3.11-7.3,4.46-5.91,3.25-12.2,3.65-18.64,2.03-6.69-1.68-10.72-6.27-10.88-13.68-.33-15.96-.17-31.93-.25-47.9,0-1.47,.61-2.11,1.98-2.45,9.8-2.37,7.82-3.3,7.9,5.73,.11,12.93,0,25.85,.04,38.78,.02,9.64,5.93,13.77,15.09,10.59,9.71-3.37,10.36-4.28,10.36-14.39,0-12.27,.07-24.55-.06-36.82-.03-2.49,.67-3.66,3.16-4.25,6.81-1.62,6.79-1.72,6.79,5.28,0,13.58,.02,27.16-.01,40.73-.01,4.41,.44,8.68,3.05,12.43,1.16,1.67,.9,2.68-.99,3.82-6.37,3.86-6.31,3.95-9.36-2.7-.26-.57-.58-1.12-.88-1.68Z" style="fill:#1d1a1a;"/><path d="M772.66,205.71c5.17-4.06,10.21-7.38,16.4-8.42,2.61-.44,5.21-.55,7.79-.18,7.34,1.02,11.62,5.47,11.8,13.63,.37,16.19,.2,32.38,.24,48.58,0,1.01-.04,2.11-1.39,2.14-2.39,.07-4.8,.2-7.17-.05-1.91-.2-1.3-1.99-1.3-3.18-.04-12.93-.02-25.87-.02-38.8,0-.98,0-1.96,0-2.93-.1-9.18-4.28-12.44-13.17-10.23-4.44,1.11-8.03,3.7-11.45,6.61-1.14,.97-.82,2.16-.82,3.3-.02,13.91-.09,27.82,.05,41.74,.03,2.89-.8,3.74-3.68,3.65-6.27-.19-6.28-.04-6.28-6.18,0-13.8-.03-27.61,.02-41.41,.01-3.74-.32-7.4-2.04-10.76-.79-1.54-.53-2.43,1-3.06,.2-.08,.38-.22,.56-.32,6.63-3.84,7.28-3.55,9.05,4.07,.1,.42,.18,.84,.4,1.82Z" style="fill:#1d1a1a;"/><path d="M1062.98,205.6c2.09-1.47,3.81-2.76,5.61-3.92,4.65-3.01,9.7-4.78,15.32-4.77,9.65,.02,14.81,4.71,15.19,14.41,.31,7.81,.15,15.65,.17,23.47,.02,7.93-.07,15.87,.05,23.8,.03,2.31-.76,2.95-3.01,2.95-6.92-.01-6.92,.08-6.92-6.85,0-12.61,.03-25.22,0-37.82-.03-9.83-4.55-13.11-14.03-10.33-4.08,1.19-7.33,3.66-10.54,6.29-1.15,.95-.86,2.13-.86,3.28-.02,13.8-.1,27.61,.06,41.41,.03,3.07-.7,4.19-3.95,4.05-6-.25-6.01-.06-6.01-6.12,0-13.91-.03-27.82,.02-41.74,.01-3.63-.36-7.18-2.01-10.45-.75-1.49-.66-2.43,.92-3.09,.2-.08,.38-.21,.57-.32,6.66-3.87,7.32-3.58,9.09,3.98,.1,.42,.17,.85,.36,1.77Z" style="fill:#1d1a1a;"/><path d="M959.42,229.3c0-6.41-.15-12.82,.07-19.23,.09-2.71-.85-3.46-3.31-3.14-1.07,.14-2.17,.02-3.26,.02-4.29,0-4.1-.01-4.36-4.15-.19-3.05,.61-4.14,3.87-4.02,6.98,.26,6.99,.07,6.99-7.05,0-3.15,.08-6.3-.03-9.45-.07-1.84,.64-2.62,2.41-3.17,7.53-2.31,7.51-2.38,7.51,5.26,0,4.13,.09,8.26-.04,12.38-.06,1.77,.57,2.17,2.22,2.14,5.11-.1,10.22,.08,15.32-.08,2.78-.09,3.77,.49,2.7,3.46-1.67,4.63-1.53,4.68-6.56,4.68-3.8,0-7.61,.07-11.41-.03-1.64-.04-2.27,.36-2.26,2.15,.08,12.6-.02,25.2,.11,37.81,.06,5.81,3,8.19,8.79,7.76,3.53-.27,6.76-1.49,9.91-2.96,1.5-.69,2.23-.52,2.83,1.23,1.97,5.78,1.79,6.45-4.01,8.38-4.97,1.65-10.05,2.87-15.35,1.82-7.73-1.54-11.74-6.03-12-13.93-.22-6.62-.05-13.25-.05-19.88-.03,0-.07,0-.1,0Z" style="fill:#1d1a1a;"/><path d="M836.58,263.47c-6-.35-11.83-1.54-17.33-4-3.21-1.44-3-1.66-.89-6.78,1.14-2.77,2.49-2.19,4.46-1.26,4.55,2.14,9.29,3.64,14.41,3.53,4.98-.11,8.48-2.56,9.68-6.71,1.2-4.14-.24-7.75-4.43-10.57-1.88-1.26-3.95-2.25-5.97-3.29-2.79-1.44-5.7-2.67-8.42-4.24-8.01-4.63-11.13-11.27-9.22-19.26,1.92-8.01,8.77-13.49,17.55-13.91,5.76-.28,11.15,1.33,16.39,3.54,1.88,.79,2.48,1.94,1.36,3.79-.45,.74-.81,1.54-1.12,2.34-.77,2.02-1.87,2.57-4,1.55-3.54-1.69-7.27-2.86-11.28-2.79-4.62,.07-7.71,2.04-8.93,5.68-1.29,3.86-.09,7.59,3.36,10.43,2.12,1.74,4.6,2.85,7.03,4.05,2.92,1.43,5.94,2.69,8.74,4.32,7.39,4.3,10.17,10.06,9.04,18.22-.97,7.04-6.1,12.53-13.66,14.48-2.2,.57-4.46,1.01-6.78,.89Z" style="fill:#1d1a1a;"/><path d="M1121.84,217.53c-2.21,8.43-2.15,17.03-.01,25.46,2.49,9.82,9.15,13.5,19,10.97,3.18-.82,6.15-2.17,8.93-3.84,1.55-.92,2.19-.55,2.9,.99,2.84,6.13,2.77,6.46-3.56,9.08-5.9,2.43-12.01,3.91-18.41,3.07-10.02-1.32-17.05-8.17-19.69-19.09-2.06-8.6-1.99-17.25,.26-25.8,5.56-21.12,25.14-27.92,42.71-14.92,.53,.8,.84,1.64,.68,2.61-1.39,1.92-1.76,5.24-3.77,5.78-1.85,.5-3.55-2.4-5.49-3.57-9.87-5.91-20.66-1.83-23.55,9.26Z" style="fill:#1d1a1a;"/><path d="M937.45,211.37c.19,10.74-.39,23.89,.33,37.01,.35,6.29,3.32,8.21,9.31,6.17,3.94-1.34,2.92-1.71,5.1,3.56,1.27,3.07-.83,3.48-2.82,4.12-2.6,.84-5.26,1.26-8,1.23-8.31-.07-12.34-3.77-13.23-11.98-.39-3.57-.58-7.14-.58-10.72,0-22.8,.05-45.59-.06-68.39-.01-2.73,.85-3.74,3.47-4.27,6.51-1.32,6.48-1.46,6.48,5.07v38.21Z" style="fill:#1d1a1a;"/><path d="M298.78,215.51c.42,1,1.27,1,2.17,.98,2.07-.03,4.15,.15,6.19-.05,2.54-.25,3.27,.55,3.23,3.2-.69,42.49-33.77,81.19-75.95,88.69-49.33,8.77-96.25-22.1-107.77-70.91-12.09-51.24,23.24-104.13,75.19-112.26,31.97-5.01,59.45,4.15,82.46,26.88,2.04,2.01,2.18,2.98-.64,4.18-3.18,1.36-6.17,3.14-9.25,4.74-.37,.87-1.15,1.29-1.92,1.68-6.21,3.14-12.44,6.23-18.67,9.33-2.24,1.12-4.08,.55-6.08-.71-19.5-12.36-39.48-12.88-59.05-.85-16.62,10.22-24.93,25.83-25.64,45.38-.54,15.01,4.57,28.02,14.5,39.01,7.94,8.78,17.95,14.43,29.7,16.46,21.78,3.76,39.26-3.68,52.85-20.82,.58-.74,1.69-1.57,1.28-2.47-.53-1.14-1.93-.57-2.95-.58-7.18-.05-14.35-.05-21.53,0-2.37,.01-4.12-.63-5.33-2.9-4.04-7.57-8.13-15.12-12.27-22.64-.52-.95-.98-1.94-1.42-2.94-.87-2.01-.28-3.12,1.95-3.28,.87-.06,1.74-.07,2.61-.07,25.44-.05,50.88,.09,76.32-.07Z" style="fill:#ea4c36;"/><path d="M432.08,150.07c-30.97-.07-56.45,25.32-56.55,56.34-.1,31.5,24.91,56.93,56.09,57.03,31.22,.1,56.69-25.2,56.78-56.41,.09-31.17-25.34-56.9-56.33-56.96Zm-.11,88.85c-17.8,.01-32.21-14.24-32.29-31.92-.08-17.79,14.43-32.27,32.31-32.25,17.53,.02,31.82,14.33,31.87,31.95,.05,17.85-14.16,32.21-31.89,32.22Z" style="fill:#ea4c36;"/><path d="M749.34,217.27c-2.08-8.51-6.21-15.53-14.86-18.82-13.91-5.28-28.35,1.3-33.27,15.3-3.66,10.43-3.65,21.1-.66,31.69,3.12,11.03,10.95,17.48,21.29,17.98,12.61,.6,21.45-4.87,25.88-16.05,2.23-5.62,2.95-11.52,3.03-19.57,.06-2.2-.41-6.41-1.42-10.52Zm-12.03,29.42c-1.98,5.73-6.42,8.63-12.51,8.63-6.03,0-10.3-2.77-12.73-8.4-2.38-5.53-2.59-11.37-2.79-17.24,.12-5.11,.34-10.2,2.22-15.06,2.46-6.33,6.71-9.51,12.93-9.61,6.05-.09,10.92,3.06,13.06,9.4,3.6,10.71,3.5,21.59-.19,32.28Z" style="fill:#1d1a1a;"/><path d="M1040.44,257.29c-2.72-4.3-3.27-9.11-3.25-14.06,.03-9.78,.09-19.56-.06-29.34-.14-9.41-4.81-14.73-13.93-16.43-7.39-1.38-14.49-.06-21.47,2.22-5.74,1.87-5.86,2.52-3.79,8.11,.83,2.23,1.85,2.17,3.62,1.32,3.44-1.65,7.03-2.82,10.86-3.19,11.26-1.1,14.99,2.34,14.92,13.54-.01,2.24-.78,2.78-2.79,2.78-5.13-.01-10.2,.67-15.11,2.17-8.57,2.61-15.09,7.46-16.39,16.96-1.61,11.8,3.76,22.33,17.25,22.09,7.26-.13,13.1-3.4,18.44-8.63,.62,1.56,1.03,2.67,1.5,3.75,2.38,5.58,2.69,5.67,7.78,2.53,.55-.34,1.08-.74,1.68-1,1.47-.65,1.53-1.55,.73-2.82Zm-14.56-8.9c-4.05,3.51-8.18,6.9-13.93,6.9-4.08,0-7.27-2.58-8.64-6.69-1.69-5.08-.51-10.29,3.32-13.32,5.7-4.51,12.59-4.8,19.44-5.08,1.35-.05,1.2,.92,1.2,1.79,0,2.28,0,4.55,0,6.83,0,.65,.09,1.32-.02,1.95-.42,2.54,1.15,5.43-1.38,7.62Z" style="fill:#1d1a1a;"/><rect x="296.17" y="215.53" width="14.19" height="6" rx=".85" ry=".85" style="fill:#ea4c36;"/></g></g></svg>